<mxfile host="app.diagrams.net" modified="2023-03-27T13:38:55.179Z" agent="Mozilla/5.0 (Windows NT 10.0; Win64; x64) AppleWebKit/537.36 (KHTML, like Gecko) Chrome/111.0.0.0 Safari/537.36" version="21.1.0" etag="vBzvQmvdDI53FDfHVZpG" type="device">
  <diagram id="WC8_gLmP8NxXb-gMQN_F" name="Page-1">
    <mxGraphModel dx="806" dy="1949" grid="1" gridSize="10" guides="1" tooltips="1" connect="1" arrows="1" fold="1" page="1" pageScale="1" pageWidth="827" pageHeight="1169" math="0" shadow="0">
      <root>
        <mxCell id="0" />
        <mxCell id="1" parent="0" />
        <mxCell id="vdzlZV4g30n1TVlfVlzD-4" value="" style="edgeStyle=orthogonalEdgeStyle;rounded=0;orthogonalLoop=1;jettySize=auto;html=1;" edge="1" parent="1" source="vdzlZV4g30n1TVlfVlzD-1" target="vdzlZV4g30n1TVlfVlzD-3">
          <mxGeometry relative="1" as="geometry" />
        </mxCell>
        <mxCell id="vdzlZV4g30n1TVlfVlzD-5" value="UDP" style="edgeLabel;html=1;align=center;verticalAlign=middle;resizable=0;points=[];" vertex="1" connectable="0" parent="vdzlZV4g30n1TVlfVlzD-4">
          <mxGeometry x="-0.1214" y="1" relative="1" as="geometry">
            <mxPoint as="offset" />
          </mxGeometry>
        </mxCell>
        <mxCell id="vdzlZV4g30n1TVlfVlzD-7" value="" style="edgeStyle=orthogonalEdgeStyle;rounded=0;orthogonalLoop=1;jettySize=auto;html=1;endArrow=none;endFill=0;startArrow=classic;startFill=1;" edge="1" parent="1" source="vdzlZV4g30n1TVlfVlzD-1">
          <mxGeometry relative="1" as="geometry">
            <mxPoint x="160" y="230" as="targetPoint" />
          </mxGeometry>
        </mxCell>
        <mxCell id="vdzlZV4g30n1TVlfVlzD-11" value="" style="edgeStyle=orthogonalEdgeStyle;rounded=0;orthogonalLoop=1;jettySize=auto;html=1;" edge="1" parent="1" source="vdzlZV4g30n1TVlfVlzD-1" target="vdzlZV4g30n1TVlfVlzD-10">
          <mxGeometry relative="1" as="geometry" />
        </mxCell>
        <mxCell id="vdzlZV4g30n1TVlfVlzD-16" value="" style="edgeStyle=orthogonalEdgeStyle;rounded=0;orthogonalLoop=1;jettySize=auto;html=1;" edge="1" parent="1" source="vdzlZV4g30n1TVlfVlzD-1" target="vdzlZV4g30n1TVlfVlzD-15">
          <mxGeometry relative="1" as="geometry">
            <Array as="points">
              <mxPoint x="160" y="370" />
              <mxPoint x="300" y="370" />
            </Array>
          </mxGeometry>
        </mxCell>
        <mxCell id="vdzlZV4g30n1TVlfVlzD-18" value="" style="edgeStyle=orthogonalEdgeStyle;rounded=0;orthogonalLoop=1;jettySize=auto;html=1;" edge="1" parent="1" source="vdzlZV4g30n1TVlfVlzD-1" target="vdzlZV4g30n1TVlfVlzD-17">
          <mxGeometry relative="1" as="geometry">
            <Array as="points">
              <mxPoint x="160" y="370" />
              <mxPoint x="440" y="370" />
            </Array>
          </mxGeometry>
        </mxCell>
        <mxCell id="vdzlZV4g30n1TVlfVlzD-27" value="" style="edgeStyle=orthogonalEdgeStyle;rounded=0;orthogonalLoop=1;jettySize=auto;html=1;" edge="1" parent="1" source="vdzlZV4g30n1TVlfVlzD-1" target="vdzlZV4g30n1TVlfVlzD-26">
          <mxGeometry relative="1" as="geometry">
            <Array as="points">
              <mxPoint x="160" y="370" />
              <mxPoint x="590" y="370" />
            </Array>
          </mxGeometry>
        </mxCell>
        <mxCell id="vdzlZV4g30n1TVlfVlzD-31" value="ESP-NOW" style="edgeLabel;html=1;align=center;verticalAlign=middle;resizable=0;points=[];" vertex="1" connectable="0" parent="vdzlZV4g30n1TVlfVlzD-27">
          <mxGeometry x="-0.8915" y="3" relative="1" as="geometry">
            <mxPoint as="offset" />
          </mxGeometry>
        </mxCell>
        <mxCell id="vdzlZV4g30n1TVlfVlzD-1" value="Panneau" style="rounded=0;whiteSpace=wrap;html=1;" vertex="1" parent="1">
          <mxGeometry x="100" y="250" width="120" height="60" as="geometry" />
        </mxCell>
        <mxCell id="vdzlZV4g30n1TVlfVlzD-3" value="Cellulaire" style="whiteSpace=wrap;html=1;rounded=0;" vertex="1" parent="1">
          <mxGeometry x="440" y="250" width="120" height="60" as="geometry" />
        </mxCell>
        <mxCell id="vdzlZV4g30n1TVlfVlzD-8" value="Batterie rechargable" style="text;html=1;align=center;verticalAlign=middle;resizable=0;points=[];autosize=1;strokeColor=none;fillColor=none;" vertex="1" parent="1">
          <mxGeometry x="95" y="200" width="130" height="30" as="geometry" />
        </mxCell>
        <mxCell id="vdzlZV4g30n1TVlfVlzD-10" value="Porte de sécurité" style="rounded=0;whiteSpace=wrap;html=1;" vertex="1" parent="1">
          <mxGeometry x="100" y="390" width="120" height="60" as="geometry" />
        </mxCell>
        <mxCell id="vdzlZV4g30n1TVlfVlzD-15" value="Capteur de mouvement" style="rounded=0;whiteSpace=wrap;html=1;" vertex="1" parent="1">
          <mxGeometry x="240" y="390" width="120" height="60" as="geometry" />
        </mxCell>
        <mxCell id="vdzlZV4g30n1TVlfVlzD-17" value="Capteur infrarouge" style="rounded=0;whiteSpace=wrap;html=1;" vertex="1" parent="1">
          <mxGeometry x="380" y="390" width="120" height="60" as="geometry" />
        </mxCell>
        <mxCell id="vdzlZV4g30n1TVlfVlzD-19" value="" style="edgeStyle=orthogonalEdgeStyle;rounded=0;orthogonalLoop=1;jettySize=auto;html=1;endArrow=none;endFill=0;startArrow=classic;startFill=1;" edge="1" parent="1">
          <mxGeometry relative="1" as="geometry">
            <mxPoint x="160" y="450" as="sourcePoint" />
            <mxPoint x="160" y="490" as="targetPoint" />
          </mxGeometry>
        </mxCell>
        <mxCell id="vdzlZV4g30n1TVlfVlzD-20" value="Batterie rechargable" style="text;html=1;align=center;verticalAlign=middle;resizable=0;points=[];autosize=1;strokeColor=none;fillColor=none;" vertex="1" parent="1">
          <mxGeometry x="95" y="490" width="130" height="30" as="geometry" />
        </mxCell>
        <mxCell id="vdzlZV4g30n1TVlfVlzD-22" value="" style="edgeStyle=orthogonalEdgeStyle;rounded=0;orthogonalLoop=1;jettySize=auto;html=1;endArrow=none;endFill=0;startArrow=classic;startFill=1;" edge="1" parent="1">
          <mxGeometry relative="1" as="geometry">
            <mxPoint x="300" y="450" as="sourcePoint" />
            <mxPoint x="300" y="490" as="targetPoint" />
          </mxGeometry>
        </mxCell>
        <mxCell id="vdzlZV4g30n1TVlfVlzD-23" value="Batterie rechargable" style="text;html=1;align=center;verticalAlign=middle;resizable=0;points=[];autosize=1;strokeColor=none;fillColor=none;" vertex="1" parent="1">
          <mxGeometry x="235" y="490" width="130" height="30" as="geometry" />
        </mxCell>
        <mxCell id="vdzlZV4g30n1TVlfVlzD-24" value="" style="edgeStyle=orthogonalEdgeStyle;rounded=0;orthogonalLoop=1;jettySize=auto;html=1;endArrow=none;endFill=0;startArrow=classic;startFill=1;" edge="1" parent="1">
          <mxGeometry relative="1" as="geometry">
            <mxPoint x="440" y="450" as="sourcePoint" />
            <mxPoint x="440" y="490" as="targetPoint" />
          </mxGeometry>
        </mxCell>
        <mxCell id="vdzlZV4g30n1TVlfVlzD-25" value="Batterie rechargable" style="text;html=1;align=center;verticalAlign=middle;resizable=0;points=[];autosize=1;strokeColor=none;fillColor=none;" vertex="1" parent="1">
          <mxGeometry x="375" y="490" width="130" height="30" as="geometry" />
        </mxCell>
        <mxCell id="vdzlZV4g30n1TVlfVlzD-26" value="Extra capteur*" style="rounded=0;whiteSpace=wrap;html=1;" vertex="1" parent="1">
          <mxGeometry x="524" y="390" width="120" height="60" as="geometry" />
        </mxCell>
        <mxCell id="vdzlZV4g30n1TVlfVlzD-28" value="" style="edgeStyle=orthogonalEdgeStyle;rounded=0;orthogonalLoop=1;jettySize=auto;html=1;endArrow=none;endFill=0;startArrow=classic;startFill=1;" edge="1" parent="1">
          <mxGeometry relative="1" as="geometry">
            <mxPoint x="590" y="450" as="sourcePoint" />
            <mxPoint x="590" y="490" as="targetPoint" />
          </mxGeometry>
        </mxCell>
        <mxCell id="vdzlZV4g30n1TVlfVlzD-29" value="Batterie rechargable" style="text;html=1;align=center;verticalAlign=middle;resizable=0;points=[];autosize=1;strokeColor=none;fillColor=none;" vertex="1" parent="1">
          <mxGeometry x="525" y="490" width="130" height="30" as="geometry" />
        </mxCell>
        <mxCell id="vdzlZV4g30n1TVlfVlzD-30" value="* Can add up to 12 devices" style="text;html=1;align=center;verticalAlign=middle;resizable=0;points=[];autosize=1;strokeColor=none;fillColor=none;" vertex="1" parent="1">
          <mxGeometry x="470" y="530" width="170" height="30" as="geometry" />
        </mxCell>
      </root>
    </mxGraphModel>
  </diagram>
</mxfile>
